<svg width="20" height="18" viewBox="0 0 20 18" fill="none" xmlns="http://www.w3.org/2000/svg">
<path d="M19.8468 3.10656C19.8184 3.03796 19.7703 2.97934 19.7085 2.93811C19.6468 2.89689 19.5742 2.87492 19.4999 2.875H16.4249C16.0749 2.20218 15.5484 1.63731 14.9018 1.24093C14.2552 0.844561 13.513 0.631641 12.7546 0.625001C12.2179 0.617295 11.685 0.717467 11.1877 0.919575C10.6904 1.12168 10.2388 1.42161 9.8596 1.80156C9.46734 2.18568 9.156 2.64447 8.94394 3.15086C8.73188 3.65726 8.62341 4.201 8.62491 4.75V5.79625C4.53272 4.91594 1.12491 1.52125 1.08835 1.48375C1.03812 1.43308 0.97449 1.39778 0.904911 1.382C0.835333 1.36623 0.762698 1.37063 0.695533 1.39469C0.628224 1.41891 0.569246 1.46188 0.525559 1.51852C0.481871 1.57516 0.455297 1.64312 0.448971 1.71438C0.0552206 6.085 1.31803 8.99969 2.44678 10.6759C3.06039 11.6062 3.8294 12.4241 4.72022 13.0938C3.25022 15.0147 0.645845 16.0122 0.618658 16.0225C0.565204 16.0422 0.516929 16.0737 0.477494 16.1148C0.438059 16.1559 0.4085 16.2054 0.391061 16.2596C0.373622 16.3139 0.36876 16.3713 0.376845 16.4277C0.384929 16.4841 0.405748 16.5379 0.43772 16.585C0.463033 16.6225 0.699283 16.96 1.3321 17.275C2.13085 17.6725 3.19678 17.875 4.49991 17.875C10.9771 17.875 16.3808 12.8538 16.8646 6.41594L19.7652 3.51531C19.8177 3.46289 19.8535 3.39607 19.868 3.32331C19.8825 3.25055 19.8751 3.17512 19.8468 3.10656ZM16.2346 5.98469C16.1701 6.04938 16.1314 6.13538 16.1258 6.22656C15.7358 12.3381 10.6293 17.125 4.49991 17.125C2.82647 17.125 1.9096 16.7603 1.45303 16.4809C2.42522 16.0291 4.40147 14.9491 5.5621 13.2081C5.59031 13.1655 5.60953 13.1176 5.61856 13.0673C5.62758 13.017 5.62624 12.9654 5.6146 12.9156C5.60331 12.8656 5.58172 12.8186 5.55121 12.7774C5.5207 12.7362 5.48194 12.7019 5.43741 12.6766C5.42522 12.6691 4.1821 11.9266 3.04491 10.225C2.06241 8.75406 0.97397 6.26031 1.14272 2.56094C2.37741 3.65031 5.40647 6.02969 8.93803 6.62031C8.9922 6.62938 9.04769 6.62644 9.1006 6.6117C9.1535 6.59696 9.20252 6.57078 9.24419 6.53501C9.28586 6.49924 9.31917 6.45475 9.34176 6.40469C9.36434 6.35464 9.37566 6.30023 9.37491 6.24531V4.75C9.37415 4.30037 9.46324 3.85513 9.63696 3.44041C9.81067 3.02569 10.0655 2.64987 10.3865 2.335C10.6964 2.0253 11.0652 1.7808 11.4711 1.61592C11.877 1.45104 12.3118 1.36913 12.7499 1.375C14.0812 1.39188 15.3271 2.20563 15.8493 3.40094C15.8782 3.46683 15.9256 3.52299 15.9856 3.56272C16.0456 3.60245 16.1158 3.62407 16.1877 3.625H18.5943L16.2346 5.98469Z" fill="white"/>
</svg>
